<?xml version="1.0" encoding="utf-8"?>
<!-- Generator: Adobe Illustrator 22.0.0, SVG Export Plug-In . SVG Version: 6.00 Build 0)  -->
<svg version="1.1" id="Layer_1" xmlns="http://www.w3.org/2000/svg"  x="0px" y="0px"
	 viewBox="0 0 388 158" style="enable-background:new 0 0 388 158;" xml:space="preserve">
<style type="text/css">
	.st0{fill:#DF1F26;}
</style>
<g>
	<rect x="258.7" y="43.1" class="st0" width="14.4" height="71.8"/>
	<polygon class="st0" points="143.7,43.1 143.7,79 129.3,43.1 115,43.1 115,114.9 129.3,114.9 129.3,79 143.7,114.9 158.1,114.9
		158.1,43.1 	"/>
	<path class="st0" d="M373.6,14.4v129.3H14.4V14.4L373.6,14.4 M374,0H14C6.3,0,0,6.3,0,14v130c0,7.7,6.3,14,14,14h360
		c7.7,0,14-6.3,14-14V14C388,6.3,381.7,0,374,0L374,0z"/>
	<path class="st0" d="M86.5,43.1h-15c-7.7,0-14.1,6.3-14.1,14v43.8c0,7.7,6.3,14,14.1,14h15c7.7,0,14.1-6.3,14.1-14V57.1
		C100.6,49.4,94.3,43.1,86.5,43.1z M86.2,100.5H71.9V57.5h14.4V100.5z"/>
	<path class="st0" d="M230.2,43.1h-15c-7.7,0-14.1,6.3-14.1,14v57.8l14.4,0V86.2h14.4c0,14.4,0,28.7,0,28.7l14.4,0V57.1
		C244.3,49.4,238,43.1,230.2,43.1z M229.9,71.8h-14.4V57.5h14.4V71.8z"/>
	<path class="st0" d="M316.6,86.2c7.7-0.1,13.9-6.3,13.9-14V72V57.3v-0.2c0-7.7-6.3-14-14.1-14h-15c-7.7,0-14.1,6.3-14.1,14v0.4
		v57.5h14.4V86.2h0l14,28.8l14.8-0.1L316.6,86.2z M316.1,71.8h-14.4V57.5h14.4V71.8z"/>
</g>
</svg>
